# xmcd
#
# Track frame offsets:
#	150
#	9076
#	25272
#	37583
#	59494
#	76348
#	94190
#	114557
#	132346
#	144831
#
# Disc length: 2162 seconds
#
# Revision: 0
# Processed by: cddbd v1.5.1PL0 Copyright (c) Steve Scherf et al.
# Submitted via: EasyCDDAExtractor 4.6.9.1
#
DISCID=7008700a
DTITLE=Depeche Mode - Live Den Haag 25.07.1981
DYEAR=1981
DGENRE=live
TTITLE0=Intro
TTITLE1=Television Set
TTITLE2=Boys Say Go!
TTITLE3=New Life
TTITLE4=Puppets
TTITLE5=Ice Machine
TTITLE6=Big Muff
TTITLE7=Just Can't Get Enough
TTITLE8=What's Your Name?
TTITLE9=The Price Of Love (bonus)
EXTD=
EXTT0=
EXTT1=
EXTT2=
EXTT3=
EXTT4=
EXTT5=
EXTT6=
EXTT7=
EXTT8=
EXTT9=
PLAYORDER=
